<!-- Generated by IcoMoon.io -->
<svg version="1.1" xmlns="http://www.w3.org/2000/svg" width="32" height="32" viewBox="0 0 32 32">
<title>matlab-svgrepo-com</title>
<path fill="#49d" d="M2 17.55l7.97-3.22c0.832-1.093 1.725-2.059 2.7-2.933l0.020-0.017c0.66-0.35 1.9-0.16 4.17-2.98 2.2-2.75 2.9-5.1 3.93-5.1 1.63 0 2.83 3.52 4.65 8.85 1.558 4.88 3.104 8.844 4.855 12.695l-0.295-0.725c-1.9-1.77-3.52-3.68-5.37-3.63-1.72 0.040-3.63 2.080-5.72 4.7-1.66 2.1-3.86 3.54-4.72 3.51 0 0-2.22-6.28-4.080-7.3-0.295-0.124-0.639-0.196-0.999-0.196-0.515 0-0.996 0.148-1.402 0.403l0.011-0.006-5.72-4.060z"></path>
<path fill="#fb7837" d="M19.8 4.020c-0.67 0.9-1.48 2.55-2.94 4.38-2.27 2.82-3.5 2.63-4.17 2.98-1.001 0.887-1.893 1.853-2.684 2.9l-0.036 0.050 3.3 2.41c2.8-3.82 4.3-7.96 5.47-10.64 0.329-0.805 0.684-1.489 1.093-2.136l-0.033 0.056z"></path>
<path fill="#fb7837" d="M20.8 3.3c-2.18 0-3.67 11.48-11.72 17.89 2.26-0.37 4.22 5.24 5.12 7.51 4-0.68 7.2-8.33 10.43-8.21 1.85 0.070 3.47 1.86 5.37 3.63-4.34-9.12-6.37-20.82-9.2-20.82z"></path>
</svg>
